<mxfile host="app.diagrams.net" modified="2024-04-10T09:47:38.260Z" agent="Mozilla/5.0 (Windows NT 10.0; Win64; x64) AppleWebKit/537.36 (KHTML, like Gecko) Chrome/123.0.0.0 Safari/537.36" version="24.2.2" etag="3EDHGD79x6Nw_cO56RgO" type="github">
  <diagram name="第 1 页" id="7Jx2mMv3sMBKx3pkTRuc">
    <mxGraphModel>
      <root>
        <mxCell id="0" />
        <mxCell id="1" parent="0" />
      </root>
    </mxGraphModel>
  </diagram>
</mxfile>
